<svg width="24" height="20" viewBox="0 0 24 20" fill="none" xmlns="http://www.w3.org/2000/svg">
<path d="M11.9169 1.40676C11.9919 1.26453 12.1956 1.26453 12.2706 1.40676L14.9581 6.50046L15.4003 6.26714L14.9581 6.50046C15.1317 6.82955 15.4482 7.05948 15.8149 7.12292L21.4897 8.10482C21.6482 8.13224 21.7111 8.32596 21.5991 8.44128L17.5851 12.5713C17.3258 12.8381 17.2049 13.2101 17.2579 13.5784L18.0777 19.279C18.1006 19.4381 17.9358 19.5579 17.7915 19.4869L12.6232 16.9457C12.2893 16.7815 11.8982 16.7815 11.5643 16.9457L6.39604 19.4869C6.25173 19.5579 6.08694 19.4381 6.10983 19.279L6.92962 13.5784C6.98259 13.2101 6.8617 12.8381 6.60237 12.5713L2.58845 8.44128C2.47637 8.32596 2.53931 8.13224 2.69777 8.10482L8.37264 7.12292C8.73929 7.05948 9.05576 6.82955 9.22939 6.50046L8.78717 6.26714L9.22939 6.50046L11.9169 1.40676Z" stroke="black"/>
<path d="M6.44606 20.0192L11.758 17.4073C11.9632 17.3064 12.0932 17.0976 12.0932 16.8689V2.423C12.0932 1.79694 11.2547 1.5893 10.9626 2.14302L8.76371 6.31063C8.67689 6.47518 8.51865 6.59014 8.33533 6.62186L2.42525 7.64445C1.94988 7.7267 1.76104 8.30789 2.09728 8.65384L6.27757 12.955C6.40724 13.0884 6.46768 13.2744 6.4412 13.4586L5.58742 19.3954C5.51875 19.8729 6.01313 20.2321 6.44606 20.0192Z" fill="black"/>
</svg>
