<svg width="24" height="20" viewBox="0 0 24 20" fill="none" xmlns="http://www.w3.org/2000/svg">
<path d="M10.0996 1.17344C10.3623 0.675635 11.0752 0.675635 11.3379 1.17344L14.0253 6.26714C14.1266 6.45911 14.3112 6.59324 14.5251 6.63024L20.2 7.61214C20.7546 7.7081 20.9749 8.38614 20.5826 8.78976L16.5687 12.9197C16.4174 13.0754 16.3469 13.2924 16.3778 13.5073L17.1976 19.2078C17.2777 19.7649 16.7009 20.184 16.1958 19.9356L11.0276 17.3944C10.8328 17.2986 10.6047 17.2986 10.4099 17.3944L5.24166 19.9356C4.73658 20.184 4.1598 19.7649 4.23992 19.2078L5.05971 13.5073C5.09061 13.2924 5.02009 13.0754 4.86882 12.9197L0.854892 8.78976C0.462615 8.38614 0.682924 7.7081 1.23752 7.61214L6.9124 6.63024C7.12627 6.59324 7.31088 6.45911 7.41217 6.26714L10.0996 1.17344Z" fill="black"/>
</svg>
